<svg width="210" height="209" viewBox="0 0 210 209" fill="none" xmlns="http://www.w3.org/2000/svg">
<ellipse cx="105" cy="104.196" rx="105" ry="104.196" fill="#9583B1"/>
<path d="M100.475 138.799C98.5513 139.05 96.6273 139.412 94.7032 139.551C83.6784 140.358 73.0187 139.05 63.0893 133.856C58.1598 131.28 54.0026 127.771 50.632 123.371C50.0702 122.633 49.5084 122.327 48.5956 122.466C46.2361 122.828 43.8767 123.134 41.0959 123.51C42.4441 125.501 43.5115 127.297 44.8036 128.927C52.1488 138.298 61.9517 143.394 73.6928 145.051C79.774 145.914 85.8412 146.095 91.8662 144.591C97.2733 143.241 101.922 140.526 106.135 136.989C106.444 136.738 106.711 136.279 106.767 135.889C108.958 119.792 117.497 107.887 131.331 99.5603C133.676 98.14 136.274 97.1236 138.718 95.8565C139.111 95.6476 139.561 95.202 139.645 94.7982C140.797 89.1171 140.727 83.4221 139.954 77.6992C139.926 77.5182 139.814 77.3372 139.631 76.9055C135.951 78.1309 132.314 79.3423 128.747 80.5398C132.525 78.3815 136.583 76.6549 140.951 75.2485C142.96 81.3613 143.901 87.5158 143.887 93.9906C151.372 91.8463 158.83 91.0108 166.61 91.5817C166.147 101.955 163.071 111.354 157.439 120.029C161.386 121.101 165.206 122.146 169.124 123.218C168.057 126.003 166.596 128.356 164.897 130.556C156.611 141.361 145.516 147.056 131.991 148.393C124.238 149.159 116.669 148.226 109.155 146.137C109.394 146.137 109.618 146.109 109.857 146.137C115.742 146.972 121.64 147.557 127.609 147.014C139.336 145.942 149.785 142.043 157.931 133.257C159.841 131.196 161.4 128.801 163.113 126.546C163.296 126.309 163.394 125.989 163.633 125.501C161.021 124.944 158.521 124.443 156.049 123.844C154.982 123.58 154.293 123.802 153.507 124.624C148.058 130.347 141.218 133.814 133.775 136.209C125.685 138.799 117.427 140.456 108.888 140.609C108.453 140.609 107.947 140.86 107.596 141.138C98.748 147.933 88.6922 150.133 77.7236 148.936C71.9935 148.309 66.4178 147.084 61.1512 144.703C51.2921 140.219 44.0592 133.118 39.4246 123.399C39.2982 123.12 39.228 122.814 39.0735 122.313C42.3599 121.881 45.5198 121.477 48.8624 121.045C43.2166 112.204 40.3656 102.624 39.9583 92.083C52.8089 91.9159 64.9432 93.8792 75.9399 100.632C65.519 95.8008 54.4942 94.2412 42.8655 94.5894C43.0761 95.9122 43.2166 97.0957 43.4413 98.2514C44.9721 105.965 47.6967 113.206 52.2611 119.709C52.8791 120.586 53.5251 120.948 54.6487 120.92C63.4966 120.683 72.2041 121.449 80.5886 124.485C88.1726 127.242 94.7594 131.489 99.8715 137.782C100.054 138.005 100.223 138.228 100.391 138.451C100.433 138.507 100.419 138.604 100.447 138.813L100.475 138.799ZM111.908 131.015L112.385 131.196C112.905 130.765 113.424 130.319 113.93 129.887C117.511 126.88 121.387 124.304 125.643 122.34C134.294 118.344 143.339 117.829 152.594 119.305C153.647 119.472 154.195 119.235 154.729 118.316C158.352 112.231 160.529 105.659 161.709 98.7249C161.891 97.597 162.032 96.4691 162.214 95.2856C161.765 95.2299 161.526 95.1742 161.287 95.1742C153.114 95.1881 145.052 95.8982 137.3 98.697C124.744 103.236 116.36 111.647 113.017 124.652C112.483 126.727 112.273 128.899 111.908 131.015ZM95.7003 136.822C91.4449 131.53 85.9676 128.035 79.76 125.599C71.6423 122.424 63.1596 121.756 54.4661 122.048C55.7863 124.833 62.1624 129.679 68.0891 132.268C76.8809 136.112 86.1221 137.351 95.7003 136.822ZM151.162 123.19C142.917 122.132 135.039 122.772 127.553 126.239C121.57 128.996 116.542 133.048 111.725 137.685C125.376 140.038 145.53 132.63 151.162 123.19Z" fill="white"/>
<path d="M100.643 130.208C96.5846 127.061 93.0314 123.427 89.9276 119.375C85.307 113.373 81.7819 106.843 80.3072 99.3655C79.5348 95.4527 79.4646 91.5122 79.9702 87.5577C80.0263 87.126 79.8859 86.4716 79.5769 86.207C75.5743 82.7399 71.1643 79.8854 66.4173 77.5183C66.2769 77.4487 66.1084 77.4347 65.8134 77.3651C64.1703 81.3753 63.3838 85.5247 63.5383 89.8413C63.4259 89.8413 63.3135 89.8413 63.2012 89.8413C63.1731 87.7108 62.9484 85.5665 63.1591 83.4639C63.3978 81.069 64.0439 78.7158 64.4652 76.3486C64.6478 75.2904 65.1534 75.2208 66.0803 75.541C70.8694 77.1562 75.4479 79.217 79.7876 81.807C80.1668 82.0297 80.546 82.2247 81.0235 82.4892C81.4589 81.2778 81.824 80.1639 82.2453 79.0917C86.4306 68.3283 93.4808 59.6534 102.301 52.2875C102.553 52.0786 103.284 52.0229 103.494 52.2179C113.41 61.0598 121.134 71.3081 123.915 84.55C124.533 87.5159 124.35 90.6349 124.505 93.6983C124.519 94.0742 124.392 94.4641 124.28 94.8401C123.929 85.9007 120.488 78.1031 115.516 70.8486C112.258 66.0865 108.438 61.8117 104.225 57.8711C103.846 57.523 103.452 57.1749 103.059 56.8268C101.683 58.1496 100.32 59.361 99.0986 60.6838C94.0566 66.1282 89.8153 72.0878 86.7817 78.8829C82.1189 89.3261 82.442 99.6997 87.0766 110.045C90.3349 117.3 94.8712 123.705 100.138 129.637C100.306 129.832 100.489 130.027 100.657 130.222L100.643 130.208Z" fill="white"/>
</svg>
