<svg width="579" height="436" viewBox="0 0 579 436" fill="none" xmlns="http://www.w3.org/2000/svg">
<path d="M273.339 388.941C264.773 390.066 256.208 391.69 247.643 392.315C198.564 395.938 151.111 390.066 106.91 366.767C84.965 355.211 66.459 339.47 51.4542 319.731C48.9534 316.421 46.4525 315.046 42.3887 315.671C31.8853 317.295 21.3819 318.669 9.00292 320.356C15.0049 329.288 19.7564 337.346 25.5083 344.654C58.2064 386.693 101.845 409.555 154.112 416.988C181.184 420.861 208.192 421.673 235.014 414.927C259.084 408.868 279.778 396.687 298.534 380.821C299.91 379.697 301.098 377.635 301.348 375.887C311.101 303.678 349.113 250.271 410.696 212.917C421.136 206.546 432.703 201.986 443.581 196.302C445.332 195.365 447.332 193.366 447.707 191.555C452.834 166.069 452.522 140.521 449.083 114.849C448.958 114.037 448.458 113.225 447.645 111.288C431.265 116.785 415.072 122.219 399.192 127.591C416.01 117.909 434.078 110.164 453.522 103.855C462.462 131.277 466.651 158.886 466.589 187.932C499.912 178.312 533.11 174.564 567.746 177.125C565.683 223.661 551.991 265.825 526.921 304.74C544.489 309.55 561.494 314.234 578.938 319.044C574.186 331.537 567.684 342.093 560.119 351.963C523.232 400.435 473.841 425.983 413.634 431.979C379.123 435.415 345.424 431.23 311.976 421.86C313.039 421.86 314.039 421.735 315.102 421.86C341.298 425.608 367.557 428.231 394.128 425.795C446.332 420.986 492.847 403.496 529.109 364.081C537.612 354.836 544.551 344.092 552.179 333.973C552.992 332.911 553.429 331.474 554.492 329.288C542.863 326.79 531.735 324.541 520.731 321.855C515.98 320.668 512.916 321.668 509.415 325.353C485.157 351.026 454.71 366.579 421.574 377.323C385.562 388.941 348.8 396.375 310.788 397.062C308.85 397.062 306.599 398.186 305.036 399.435C265.649 429.918 220.884 439.787 172.056 434.415C146.547 431.605 121.727 426.108 98.2818 415.426C54.3926 395.313 22.1947 363.456 1.56301 319.856C1.00032 318.607 0.687723 317.233 0 314.984C14.6297 313.048 28.6968 311.236 43.5766 309.3C18.4435 269.635 5.75186 226.66 3.93878 179.374C61.1448 178.625 115.162 187.432 164.116 217.727C117.726 196.052 68.6472 189.056 16.8805 190.618C17.8183 196.552 18.4435 201.861 19.4438 207.046C26.2585 241.651 38.3874 274.132 58.7065 303.303C61.4574 307.238 64.3333 308.862 69.3349 308.737C108.723 307.676 147.485 311.111 184.81 324.728C218.571 337.096 247.893 356.148 270.65 384.382C271.463 385.381 272.213 386.38 272.963 387.38C273.151 387.63 273.088 388.067 273.213 389.004L273.339 388.941ZM324.23 354.024L326.356 354.836C328.669 352.9 330.982 350.901 333.233 348.964C349.176 335.472 366.431 323.916 385.375 315.109C423.887 297.182 464.15 294.87 505.351 301.492C510.04 302.241 512.479 301.179 514.854 297.057C530.984 269.76 540.675 240.277 545.927 209.17C546.74 204.11 547.365 199.05 548.178 193.741C546.177 193.491 545.114 193.241 544.051 193.241C507.664 193.304 471.778 196.489 437.267 209.045C381.374 229.408 344.049 267.136 329.169 325.478C326.793 334.785 325.856 344.529 324.23 354.024ZM252.082 380.072C233.138 356.335 208.755 340.657 181.121 329.725C144.984 315.484 107.222 312.485 68.5222 313.797C74.3991 326.29 102.783 348.027 129.167 359.646C168.305 376.886 209.443 382.445 252.082 380.072ZM498.974 318.919C462.275 314.172 427.201 317.045 393.878 332.599C367.244 344.967 344.862 363.144 323.417 383.944C384.187 394.501 473.904 361.27 498.974 318.919Z" fill="white"/>
<path d="M274.089 350.401C256.021 336.284 240.203 319.981 226.386 301.804C205.817 274.882 190.124 245.586 183.56 212.043C180.121 194.491 179.808 176.813 182.059 159.073C182.309 157.137 181.684 154.201 180.309 153.014C162.49 137.461 142.859 124.656 121.727 114.037C121.102 113.724 120.352 113.662 119.039 113.35C111.724 131.339 108.223 149.954 108.91 169.318C108.41 169.318 107.91 169.318 107.41 169.318C107.285 159.76 106.285 150.141 107.222 140.709C108.285 129.965 111.161 119.409 113.037 108.79C113.85 104.042 116.1 103.73 120.227 105.167C141.546 112.413 161.928 121.657 181.246 133.276C182.934 134.275 184.622 135.15 186.748 136.336C188.686 130.902 190.312 125.905 192.187 121.095C210.818 72.8103 242.204 33.8952 281.466 0.851616C282.592 -0.0853465 285.843 -0.335203 286.781 0.539295C330.92 40.204 365.306 86.1777 377.685 145.581C380.436 158.886 379.623 172.878 380.311 186.62C380.373 188.307 379.811 190.056 379.311 191.742C377.748 151.64 362.43 116.66 340.298 84.1164C325.793 62.7536 308.788 43.5771 290.032 25.8998C288.344 24.3382 286.593 22.7765 284.842 21.2149C278.715 27.149 272.651 32.5834 267.212 38.5175C244.767 62.941 225.886 89.6757 212.382 120.158C191.625 167.006 193.063 213.542 213.694 259.953C228.199 292.497 248.393 321.23 271.838 347.84C272.589 348.715 273.401 349.589 274.151 350.464L274.089 350.401Z" fill="white"/>
</svg>
